{"title":"Walking with Dinosaurs 2013 CAM x264 AC3-MiLLENiUM","uid":9412985,"size":1297626480,"categoryP":"video","categoryS":"movies","magnet":"?xt=urn:btih:63c028b2609b9a134e28937ecb532403dd09d661&amp;dn=Walking+with+Dinosaurs+2013+CAM+x264+AC3-MiLLENiUM&amp;tr=udp%3A%2F%2Ftracker.openbittorrent.com%3A80&amp;tr=udp%3A%2F%2Fopen.demonii.com%3A1337&amp;tr=udp%3A%2F%2Ftracker.coppersurfer.tk%3A6969&amp;tr=udp%3A%2F%2Fexodus.desync.com%3A6969","seeders":2,"leechers":0,"uploader":".BONE.","files":4,"time":1388353978,"description":"See and feel what it was like when dinosaurs ruled the Earth, in a story where an underdog dino triumphs to become a hero for the ages.\n\n\nSource...............: VOBS [THANKS]\nIMDb Information.... : http://www.imdb.com/title/tt1762399/\nSample Included......: yes\n\n\nGeneral\nUnique ID : 224533014143110730687011644752172800661 (0xA8EB7C4C9F7BF5E5BEC39DF4745DDA95)\nComplete name : Walking with Dinosaurs 2013 CAM x264 AC3-MiLLENiUM.mkv\nFormat : Matroska\nFormat version : Version 2\nFile size : 1.20 GiB\nDuration : 1h 20mn\nOverall bit rate mode : Variable\nOverall bit rate : 2 143 Kbps\nEncoded date : UTC 2013-12-27 20:45:37\nWriting application : mkvmerge v6.6.0 ('The Edge Of The In Between') built on Dec 1 2013 17:55:00\nWriting library : libebml v1.3.0 + libmatroska v1.4.1\n\nVideo\nID : 1\nFormat : AVC\nFormat/Info : Advanced Video Codec\nFormat profile : &lt;a class=&quot;__cf_email__&quot; href=&quot;/cdn-cgi/l/email-protection&quot; data-cfemail=&quot;7830111f1038344c5649&quot;&gt;[email&amp;#160;protected]&lt;/a&gt;&lt;script cf-hash='f9e31' type=&quot;text/javascript&quot;&gt;\n/* &lt;![CDATA[ */!function(){try{var t=&quot;currentScript&quot;in document?document.currentScript:function(){for(var t=document.getElementsByTagName(&quot;script&quot;),e=t.length;e--;)if(t[e].getAttribute(&quot;cf-hash&quot;))return t[e]}();if(t&amp;&amp;t.previousSibling){var e,r,n,i,c=t.previousSibling,a=c.getAttribute(&quot;data-cfemail&quot;);if(a){for(e=&quot;&quot;,r=parseInt(a.substr(0,2),16),n=2;a.length-n;n+=2)i=parseInt(a.substr(n,2),16)^r,e+=String.fromCharCode(i);e=document.createTextNode(e),c.parentNode.replaceChild(e,c)}}}catch(u){}}();/* ]]&gt; */&lt;/script&gt;\nFormat settings, CABAC : Yes\nFormat settings, ReFrames : 3 frames\nCodec ID : V_MPEG4/ISO/AVC\nDuration : 1h 20mn\nBit rate mode : Variable\nBit rate : 1 717 Kbps\nMaximum bit rate : 40.0 Mbps\nWidth : 720 pixels\nHeight : 304 pixels\nDisplay aspect ratio : 2.35:1\nFrame rate mode : Constant\nFrame rate : 23.976 fps\nColor space : YUV\nChroma subsampling : 4:2:0\nBit depth : 8 bits\nScan type : Progressive\nBits/(Pixel*Frame) : 0.327\nStream size : 983 MiB (80%)\nWriting library : x264 core 140 r2377 1ca7bb9\n\nAudio\nID : 2\nFormat : AC-3\nFormat/Info : Audio Coding 3\nMode extension : CM (complete main)\nFormat settings, Endianness : Big\nCodec ID : A_AC3\nDuration : 1h 20mn\nBit rate mode : Constant\nBit rate : 384 Kbps\nChannel(s) : 2 channels\nChannel positions : Front: L R\nSampling rate : 48.0 KHz\nBit depth : 16 bits\nCompression mode : Lossy\nStream size : 220 MiB (18%)\nLanguage : English\nDefault : Yes\nForced : No\n\nBONES NOTES: VERY GOOD CAM ENJOY","torrent":{"xt":"urn:btih:63c028b2609b9a134e28937ecb532403dd09d661","amp;dn":"Walking+with+Dinosaurs+2013+CAM+x264+AC3-MiLLENiUM","amp;tr":["udp%3A%2F%2Ftracker.openbittorrent.com%3A80","udp%3A%2F%2Fopen.demonii.com%3A1337","udp%3A%2F%2Ftracker.coppersurfer.tk%3A6969","udp%3A%2F%2Fexodus.desync.com%3A6969"],"infoHash":"63c028b2609b9a134e28937ecb532403dd09d661","infoHashBuffer":{"type":"Buffer","data":[99,192,40,178,96,155,154,19,78,40,147,126,203,83,36,3,221,9,214,97]},"announce":[],"urlList":[]}}